<svg width="158" height="150" viewBox="0 0 158 150" fill="none" xmlns="http://www.w3.org/2000/svg">
<path fill-rule="evenodd" clip-rule="evenodd" d="M0 3.5C0 1.567 1.567 0 3.5 0H29.9588H30.4396L30.9025 0.129626C35.66 1.46171 41.6251 7.90817 41.6251 21.1392C41.6251 24.0068 41.7457 28.5539 41.9445 34.0883C43.8248 33.1386 45.943 32.6653 47.9246 32.6653H146.247C148.602 32.6653 150.649 33.0803 152.352 33.9974C154.107 34.9425 155.264 36.2973 155.986 37.7606C156.676 39.1592 156.935 40.5857 157.059 41.7042C157.122 42.2724 157.155 42.8106 157.18 43.2568L157.195 43.5403L157.195 43.5412L157.195 43.5431L157.195 43.5455C157.213 43.8754 157.227 44.1232 157.247 44.355C157.594 48.3511 157.584 58.6755 157.217 69.0764C156.852 79.4116 156.117 90.4654 154.882 95.7579C152.286 106.88 143.339 111.422 137.689 111.846L137.551 111.856L137.412 111.855C128.354 111.816 116.316 111.934 104.076 112.053C99.4337 112.099 94.7627 112.144 90.2141 112.182C73.8023 112.317 58.7769 112.35 52.8521 111.843C51.3538 111.714 49.5851 111.266 47.8348 110.382C47.8603 110.445 47.8861 110.508 47.912 110.571C49.7636 115.051 52.0896 117.254 54.644 117.632C60.7548 118.538 76.7815 118.554 94.781 118.313C101.454 118.224 108.357 118.1 115.029 117.981L115.03 117.981H115.03H115.031H115.031H115.031H115.031H115.032H115.032H115.032C126.129 117.782 136.587 117.595 144.287 117.595C146.22 117.595 147.787 119.162 147.787 121.095C147.787 123.028 146.22 124.595 144.287 124.595C136.64 124.595 126.304 124.78 115.266 124.978L115.262 124.978H115.262L115.261 124.978C108.576 125.097 101.634 125.222 94.8749 125.312C77.1797 125.55 60.4324 125.566 53.6181 124.557C47.3529 123.629 43.607 118.482 41.4426 113.244C39.2278 107.885 38.2064 101.41 37.897 95.8089C36.8111 76.155 34.6251 33.5438 34.6251 21.1392C34.6251 10.8856 30.5952 7.66329 29.3188 7H3.5C1.567 7 0 5.433 0 3.5ZM43.2596 42.9321L46.8303 98.1162C47.8452 103.265 51.4428 104.696 53.4499 104.868C58.958 105.34 73.549 105.319 90.1563 105.182C94.6706 105.145 99.3189 105.099 103.947 105.054L103.948 105.054H103.949H103.95C116.143 104.935 128.195 104.817 137.288 104.855C140.385 104.562 146.288 101.782 148.065 94.1673C149.116 89.6603 149.851 79.3184 150.221 68.8295C150.589 58.4063 150.579 48.4783 150.273 44.9614C150.242 44.6026 150.221 44.2069 150.202 43.8649L150.202 43.8643L150.202 43.8599L150.202 43.8588L150.19 43.6417C150.167 43.2215 150.143 42.8435 150.102 42.4777C150.019 41.7282 149.885 41.2152 149.709 40.858C149.564 40.5655 149.381 40.3483 149.032 40.1603C148.631 39.9444 147.812 39.6653 146.247 39.6653H47.9246C46.4816 39.6653 45.2266 40.1159 44.4081 40.7574C43.6744 41.3325 43.2848 42.0429 43.2596 42.9321ZM88.9896 54.1311C88.9896 52.1981 87.4226 50.6311 85.4896 50.6311C83.5566 50.6311 81.9896 52.1981 81.9896 54.1311V90.7161C81.9896 92.6491 83.5566 94.2161 85.4896 94.2161C87.4226 94.2161 88.9896 92.6491 88.9896 90.7161V54.1311ZM100.516 47.3645C102.449 47.3645 104.016 48.9315 104.016 50.8645V95.9425C104.016 97.8755 102.449 99.4425 100.516 99.4425C98.5826 99.4425 97.0156 97.8755 97.0156 95.9425V50.8645C97.0156 48.9315 98.5826 47.3645 100.516 47.3645ZM117.082 54.1311C117.082 52.1981 115.515 50.6311 113.582 50.6311C111.649 50.6311 110.082 52.1981 110.082 54.1311V90.7161C110.082 92.6491 111.649 94.2161 113.582 94.2161C115.515 94.2161 117.082 92.6491 117.082 90.7161V54.1311ZM70.4637 142.514C73.0923 142.514 75.2232 140.383 75.2232 137.754C75.2232 135.126 73.0923 132.995 70.4637 132.995C67.8351 132.995 65.7042 135.126 65.7042 137.754C65.7042 140.383 67.8351 142.514 70.4637 142.514ZM70.4637 149.514C76.9583 149.514 82.2232 144.249 82.2232 137.754C82.2232 131.26 76.9583 125.995 70.4637 125.995C63.9691 125.995 58.7042 131.26 58.7042 137.754C58.7042 144.249 63.9691 149.514 70.4637 149.514ZM130.101 137.754C130.101 140.383 127.97 142.514 125.341 142.514C122.713 142.514 120.582 140.383 120.582 137.754C120.582 135.126 122.713 132.995 125.341 132.995C127.97 132.995 130.101 135.126 130.101 137.754ZM137.101 137.754C137.101 144.249 131.836 149.514 125.341 149.514C118.847 149.514 113.582 144.249 113.582 137.754C113.582 131.26 118.847 125.995 125.341 125.995C131.836 125.995 137.101 131.26 137.101 137.754Z" fill="#333333"/>
</svg>
